<?xml version="1.0" encoding="UTF-8"?>
<svg id="Layer_2" data-name="Layer 2" xmlns="http://www.w3.org/2000/svg" viewBox="0 0 222.501 161.344">
  <g id="Layer_1-2" data-name="Layer 1">
    <g id="Company-Icon">
      <g id="Content">
        <rect id="Background" x="4.205" y="25.752" width="213.07" height="130.903" fill="#f7931e" stroke="#231f20" stroke-miterlimit="10"/>
        <g id="Forground">
          <path id="Sun" d="m191.077,155.016c1.642-6.7,2.463-13.727,2.338-20.957-.77-44.58-37.015-80.093-80.949-79.318-43.934.775-78.93,37.544-78.16,82.124.125,7.23,1.183,14.224,3.061,20.862l153.707-2.711" fill="#ffc845" stroke="#231f20" stroke-miterlimit="10"/>
          <g id="Mountains">
            <path d="m219.612,158.023c-.122-1.169-.109-2.346.025-3.515-.031-.345,0-.693-.012-1.039-.188-1.718-.094-3.461.272-5.154-.091-.459-.197-.914-.25-1.378l.012-.003c-.885-2.601-1.069-5.414-.569-8.109-.416-1.095-.688-2.236-.85-3.391-4.46-3.66-10.399-16.832-10.399-16.832l-3.213,4.429-14.447-22.155-4.445,11.381c-2.944-4.509-4.692-3.119-5.248-2.443-.122.156-.191.28-.191.28l-15.891-24.957-14.447,22.155-3.213-4.429v.006c-.15.334-9.027,20.027-13.165,17.72-.275-.156-.8-.082-1.528.187-4.438-7.299-8.199-15.691-8.199-15.691l-4.713,6.501-21.201-32.509-6.52,16.696c-4.323-6.617-6.883-4.582-7.692-3.586-.191.229-.281.402-.281.402l-23.324-36.618-21.195,32.514-4.713-6.501v.006c-.225.495-18.522,27.037-19.317,26.002-.576,1.389-2.198,4.48-11.453,16.815-.003.068.286,21.455.127,21.083.056.631.1,12.313.081,12.947" fill="#192a2c" stroke="#231f20" stroke-miterlimit="10"/>
            <path d="m145.765,120.887h.006c1.909-2.94,1.353-5.225,2.865-9.407.141-.393.22-.855.254-1.364l2.27,3.128,11.727-17.954c-.495,3.933-.617,8.505.409,12.693,2.511,10.256-2.398,13.227.528,15.96,2.917,2.727-1.411,7.493,1.304,9.341,2.719,1.842,6.164-12.074,9.466-9.341,2.364,1.958,5.743-5.922,8.507-10.007l2.905,4.451,1.854-2.91c.067,1.632.302,3.195.776,4.583,2.511,7.3-4.393,8.79-2.511,11.579,1.139,1.679,2.578,8.221,4.344,13.009l-30.177-3.073c-5.563-5.825-12.973-13.116-15.927-11.468-1.292.722-2.899-.055-4.64-1.709,2.264-3.801,4.506-8.251,6.033-7.504" fill="#4c7b6f" stroke="#231f20" stroke-miterlimit="10"/>
            <path d="m18.113,127.02c7.391-10.548,12.552-19.968,16.697-17.96l1.651-3.884c2.804-4.309.344-3.772,2.552-9.912.208-.575.327-1.256.388-2.005l3.327,4.6,17.204-26.349c-.73,5.775-.904,12.475.602,18.621,3.681,15.05-3.528,19.409.77,23.417,4.292,4.008-2.068,10.989,1.915,13.706,3.989,2.711,9.051-17.711,13.884-13.706,3.473,2.879,8.434-8.685,12.491-14.682l4.264,6.528,2.719-4.268c.095,2.387.443,4.686,1.146,6.73,3.681,10.704-6.445,12.887-3.687,16.978,1.023,1.51,15.872,9.238,18.597,21.337l-22.412-6.777-20.008-3.709-27.761,3.709-17.332-11.595-14.265,3.704c2.23-3.128,4.558-6.721,7.264-4.478" fill="#4c7b6f" stroke="#231f20" stroke-miterlimit="10"/>
          </g>
          <g id="Birds">
            <path id="Bird6" d="m37.797,56.859l8.737,1.648s1.483-3.958,2.8-7.751c-4.283,3.462-4.283,5.11-4.283,5.11l-7.255.993Z" fill="#2f272a" stroke-width="0"/>
            <path id="Bird5" d="m78.049,68.391l3.449,9.867s4.905-.808,9.542-1.691c-6.047-2.335-7.724-1.367-7.724-1.367l-5.267-6.808Z" fill="#2f272a" stroke-width="0"/>
            <path id="Bird4" d="m117.522,82.575l14.728-.106s1.152-6.904,2.085-13.49c-5.865,6.997-5.335,9.677-5.335,9.677l-11.478,3.919Z" fill="#2f272a" stroke-width="0"/>
            <path id="Bird3" d="m97.653,66.506l6.374-.847s.119-3.051.172-5.957c-2.164,3.349-1.794,4.481-1.794,4.481l-4.753,2.323Z" fill="#2f272a" stroke-width="0"/>
            <path id="Bird2" d="m143.784,66.627l3.561,5.348s2.793-1.225,5.421-2.462c-3.952-.47-4.806.364-4.806.364l-4.177-3.25Z" fill="#2f272a" stroke-width="0"/>
            <path id="Bird1" d="m121.867,47.401l3.76,5.216s2.747-1.33,5.328-2.661c-3.972-.324-4.792.536-4.792.536l-4.296-3.091Z" fill="#2f272a" stroke-width="0"/>
          </g>
        </g>
      </g>
      <g id="Screen">
        <rect id="Left" y="3.789" width="6.555" height="154.336" stroke-width="0"/>
        <rect id="Right" x="215.881" y="3.9" width="6.555" height="154.606" stroke-width="0"/>
        <g id="ToolBar">
          <g id="Navbar">
            <rect id="Searchbar" x="68.919" y="11.884" width="89.869" height="4.873" rx="2.435" ry="2.435" stroke-width="0"/>
            <g id="Menu">
              <rect x="193.77" y="10.616" width="13.818" height="2.697" rx="1.155" ry="1.155" stroke-width="0"/>
              <rect x="193.77" y="15.905" width="13.818" height="2.697" rx="1.155" ry="1.155" stroke-width="0"/>
            </g>
            <g id="Buttons">
              <ellipse cx="16.5" cy="14.559" rx="3.35" ry="3.328" stroke-width="0"/>
              <ellipse cx="29.904" cy="14.559" rx="3.35" ry="3.328" stroke-width="0"/>
              <ellipse cx="43.311" cy="14.559" rx="3.35" ry="3.328" stroke-width="0"/>
            </g>
          </g>
          <rect id="Top" y="0" width="222.501" height="6.643" rx="3.023" ry="3.023" stroke-width="0"/>
          <path id="Bottom" d="m3.151,23.14h216.711c1.356,0,2.455,1.099,2.455,2.455h0c0,1.356-1.099,2.453-2.455,2.453H3.151c-1.356,0-2.455-1.099-2.455-2.455h0c0-1.356,1.099-2.453,2.455-2.453Z" stroke-width="0"/>
        </g>
        <rect id="Bottom-2" data-name="Bottom" x=".061" y="154.52" width="222.408" height="6.824" rx="3.411" ry="3.411" stroke-width="0"/>
      </g>
    </g>
  </g>
</svg>