<?xml version="1.0" encoding="UTF-8"?>
<svg id="Layer_2" data-name="Layer 2" xmlns="http://www.w3.org/2000/svg" viewBox="0 0 85.501 62">
  <g id="Layer_1-2" data-name="Layer 1">
    <g id="Company-Icon">
      <g id="Content">
        <rect id="Background" x="1.616" y="9.896" width="81.877" height="50.302" fill="#f7931e" stroke="#231f20" stroke-miterlimit="10"/>
        <g id="Forground">
          <path id="Sun" d="m73.425,59.568c.631-2.575.947-5.275.899-8.053-.296-17.131-14.224-30.777-31.106-30.48s-30.331,14.427-30.035,31.558c.048,2.778.455,5.466,1.176,8.017l59.065-1.042" fill="#ffc845" stroke="#231f20" stroke-miterlimit="10"/>
          <g id="Mountains">
            <path d="m84.391,60.724c-.047-.449-.042-.902.01-1.351-.012-.133,0-.266-.005-.399-.072-.66-.036-1.33.104-1.981-.035-.176-.076-.351-.096-.53h.005c-.34-1.001-.411-2.082-.219-3.117-.16-.421-.264-.859-.327-1.303-1.714-1.406-3.996-6.468-3.996-6.468l-1.235,1.702-5.551-8.514-1.708,4.373c-1.131-1.733-1.803-1.199-2.017-.939-.047.06-.073.108-.073.108l-6.106-9.59-5.551,8.514-1.235-1.702v.002c-.058.128-3.469,7.696-5.059,6.809-.106-.06-.307-.032-.587.072-1.706-2.805-3.15-6.03-3.15-6.03l-1.811,2.498-8.147-12.492-2.505,6.416c-1.661-2.543-2.645-1.761-2.956-1.378-.073.088-.108.154-.108.154l-8.963-14.071-8.145,12.494-1.811-2.498v.002c-.086.19-7.117,10.39-7.423,9.992-.221.534-.845,1.722-4.401,6.462-.001.026.11,8.245.049,8.101.022.243.038,4.732.031,4.975" fill="#192a2c" stroke="#231f20" stroke-miterlimit="10"/>
            <path d="m56.013,46.454h.002c.734-1.13.52-2.008,1.101-3.615.054-.151.085-.328.097-.524l.872,1.202,4.506-6.899c-.19,1.511-.237,3.268.157,4.878.965,3.941-.921,5.083.203,6.133,1.121,1.048-.542,2.879.501,3.589,1.045.708,2.369-4.64,3.638-3.589.909.753,2.207-2.276,3.269-3.846l1.116,1.71.713-1.118c.026.627.116,1.228.298,1.761.965,2.805-1.688,3.378-.965,4.449.438.645.991,3.159,1.669,4.999l-11.596-1.181c-2.138-2.238-4.985-5.04-6.12-4.407-.497.277-1.114-.021-1.783-.657.87-1.46,1.731-3.171,2.318-2.884" fill="#4c7b6f" stroke="#231f20" stroke-miterlimit="10"/>
            <path d="m6.96,48.81c2.84-4.053,4.823-7.673,6.416-6.901l.634-1.493c1.078-1.656.132-1.449.981-3.809.08-.221.126-.483.149-.771l1.278,1.768,6.611-10.125c-.281,2.219-.347,4.794.231,7.155,1.414,5.783-1.356,7.458.296,8.999,1.649,1.54-.795,4.223.736,5.267,1.533,1.042,3.478-6.806,5.335-5.267,1.335,1.106,3.241-3.338,4.8-5.642l1.639,2.508,1.045-1.64c.036.917.17,1.801.44,2.586,1.414,4.113-2.477,4.952-1.417,6.524.393.58,6.099,3.55,7.146,8.199l-8.612-2.604-7.689-1.425-10.668,1.425-6.66-4.456-5.482,1.423c.857-1.202,1.751-2.583,2.791-1.721" fill="#4c7b6f" stroke="#231f20" stroke-miterlimit="10"/>
          </g>
          <g id="Birds">
            <path id="Bird6" d="m14.524,21.849l3.358.633s.57-1.521,1.076-2.979c-1.646,1.33-1.646,1.964-1.646,1.964l-2.788.382Z" fill="#2f272a" stroke-width="0"/>
            <path id="Bird5" d="m29.992,26.281l1.325,3.791s1.885-.311,3.667-.65c-2.324-.897-2.968-.525-2.968-.525l-2.024-2.616Z" fill="#2f272a" stroke-width="0"/>
            <path id="Bird4" d="m45.16,31.731l5.659-.041s.443-2.653.801-5.184c-2.254,2.689-2.05,3.719-2.05,3.719l-4.411,1.506Z" fill="#2f272a" stroke-width="0"/>
            <path id="Bird3" d="m37.525,25.556l2.449-.326s.046-1.173.066-2.289c-.832,1.287-.689,1.722-.689,1.722l-1.826.893Z" fill="#2f272a" stroke-width="0"/>
            <path id="Bird2" d="m55.252,25.603l1.368,2.055s1.073-.471,2.083-.946c-1.519-.181-1.847.14-1.847.14l-1.605-1.249Z" fill="#2f272a" stroke-width="0"/>
            <path id="Bird1" d="m46.83,18.215l1.445,2.004s1.056-.511,2.048-1.023c-1.526-.125-1.842.206-1.842.206l-1.651-1.188Z" fill="#2f272a" stroke-width="0"/>
          </g>
        </g>
      </g>
      <g id="Screen">
        <rect id="Left" y="1.456" width="2.519" height="59.307" stroke-width="0"/>
        <rect id="Right" x="82.957" y="1.499" width="2.519" height="59.411" stroke-width="0"/>
        <g id="ToolBar">
          <g id="Navbar">
            <rect id="Searchbar" x="26.484" y="4.567" width="34.534" height="1.873" rx=".936" ry=".936" stroke-width="0"/>
            <g id="Menu">
              <rect x="74.46" y="4.079" width="5.31" height="1.037" rx=".444" ry=".444" stroke-width="0"/>
              <rect x="74.46" y="6.112" width="5.31" height="1.037" rx=".444" ry=".444" stroke-width="0"/>
            </g>
            <g id="Buttons">
              <ellipse cx="6.34" cy="5.595" rx="1.287" ry="1.279" stroke-width="0"/>
              <ellipse cx="11.491" cy="5.595" rx="1.287" ry="1.279" stroke-width="0"/>
              <ellipse cx="16.643" cy="5.595" rx="1.287" ry="1.279" stroke-width="0"/>
            </g>
          </g>
          <rect id="Top" width="85.501" height="2.553" rx="1.162" ry="1.162" stroke-width="0"/>
          <path id="Bottom" d="m1.211,8.892h83.276c.521,0,.944.422.944.944h0c0,.521-.422.943-.944.943H1.211c-.521,0-.944-.422-.944-.944h0c0-.521.422-.943.944-.943Z" stroke-width="0"/>
        </g>
        <rect id="Bottom-2" data-name="Bottom" x=".023" y="59.378" width="85.465" height="2.622" rx="1.311" ry="1.311" stroke-width="0"/>
      </g>
    </g>
  </g>
</svg>