<?xml version="1.0" encoding="UTF-8"?>
<svg xmlns="http://www.w3.org/2000/svg" xmlns:xlink="http://www.w3.org/1999/xlink" viewBox="0 0 3913.937 1956.968">
  <defs>
    <clipPath id="clippath">
      <rect width="3913.937" height="1956.968" fill="none" stroke-width="0"/>
    </clipPath>
  </defs>
  <g isolation="isolate">
    <g id="Layer_2" data-name="Layer 2">
      <g id="Layer_2-2" data-name="Layer 2">
        <g clip-path="url(#clippath)">
          <rect x="-688.068" y="-1143.116" width="2347.709" height="3912.848" transform="translate(-433.867 585.938) rotate(-45.263)" fill="#fff" stroke-width="0"/>
          <g opacity=".67">
            <polygon points="3013.567 1451.382 2357.825 2077.429 1658.339 2083.671 1096.884 1527.351 -1468.295 1539.134 -1471.171 913.087 1353.322 900.107 1914.778 1456.427 3013.567 1451.382" fill="#e6e6e6" mix-blend-mode="multiply" opacity=".78" stroke-width="0"/>
            <polygon points="2712.85 1038.525 2715.012 1508.061 1727.678 1512.599 1028.149 2218.585 -906.236 2227.473 -908.387 1757.938 831.502 1749.944 1531.036 1043.952 2712.85 1038.525" fill="#e6e6e6" mix-blend-mode="multiply" opacity=".93" stroke-width="0"/>
            <polygon points="2703.903 1499.43 2704.622 1655.947 263.543 1667.16 -454.484 2391.815 -565.663 2281.653 197.994 1510.946 2703.903 1499.43" fill="#e6e6e6" mix-blend-mode="multiply" opacity=".53" stroke-width="0"/>
            <polygon points="2550.998 1942.826 2551.717 2099.343 1379.392 2104.726 250.924 986.58 -1603.602 995.101 -1604.322 838.583 315.029 829.765 1443.503 1947.916 2550.998 1942.826" fill="#fff" mix-blend-mode="screen" opacity=".45" stroke-width="0"/>
            <polygon points="1944.188 2354.318 1945.624 2667.344 790.686 2672.651 -101.528 1788.597 -1157.239 1793.45 -1158.682 1480.422 26.693 1474.978 918.908 2359.031 1944.188 2354.318" fill="#fff" mix-blend-mode="screen" opacity=".76" stroke-width="0"/>
            <polygon points="2495.618 729.638 2497.781 1199.173 796.619 1206.992 -492.685 2508.198 -826.223 2177.711 599.977 738.345 2495.618 729.638" fill="#e6e6e6" mix-blend-mode="screen" opacity=".58" stroke-width="0"/>
            <polygon points="2719.664 1315.961 2721.096 1628.99 -1180.047 1646.913 -1181.49 1333.884 2719.664 1315.961" fill="#fff" mix-blend-mode="screen" opacity=".2" stroke-width="0"/>
            <polygon points="2213.569 1970.474 2215.731 2440.01 735.098 2446.812 -355.695 1365.997 -2232.699 1374.617 -2234.85 905.082 -163.368 895.562 927.431 1976.383 2213.569 1970.474" fill="#e6e6e6" mix-blend-mode="multiply" opacity=".72" stroke-width="0"/>
          </g>
          <g opacity=".67">
            <polygon points="4465.02 1462.751 4467.897 2088.798 3109.792 2095.04 2548.337 1538.72 -16.841 1550.503 -19.718 924.456 2804.775 911.476 3366.231 1467.796 4465.02 1462.751" fill="#e6e6e6" mix-blend-mode="multiply" opacity=".78" stroke-width="0"/>
            <polygon points="4164.303 1049.894 4166.466 1519.43 3179.131 1523.969 2479.602 2229.955 545.218 2238.842 543.066 1769.307 2282.955 1761.313 2982.489 1055.322 4164.303 1049.894" fill="#e6e6e6" mix-blend-mode="multiply" opacity=".93" stroke-width="0"/>
            <polygon points="4155.356 1510.799 4156.075 1667.316 1714.996 1678.529 996.969 2403.184 885.79 2293.022 1649.447 1522.315 4155.356 1510.799" fill="#e6e6e6" mix-blend-mode="multiply" opacity=".53" stroke-width="0"/>
            <polygon points="4002.451 1954.195 4003.17 2110.712 2830.845 2116.095 1702.377 997.949 -152.149 1006.47 -152.868 849.952 1766.482 841.134 2894.956 1959.285 4002.451 1954.195" fill="#fff" mix-blend-mode="screen" opacity=".45" stroke-width="0"/>
            <polygon points="3395.641 2365.687 3397.077 2678.713 2242.139 2684.02 1349.925 1799.966 294.214 1804.819 292.771 1491.791 1478.146 1486.347 2370.361 2370.4 3395.641 2365.687" fill="#fff" mix-blend-mode="screen" opacity=".76" stroke-width="0"/>
            <polygon points="3947.072 741.007 3949.234 1210.542 2248.072 1218.361 958.768 2519.567 625.23 2189.08 2051.43 749.714 3947.072 741.007" fill="#e6e6e6" mix-blend-mode="screen" opacity=".58" stroke-width="0"/>
            <polygon points="4171.117 1327.33 4172.55 1640.359 271.406 1658.282 269.963 1345.253 4171.117 1327.33" fill="#fff" mix-blend-mode="screen" opacity=".2" stroke-width="0"/>
            <polygon points="3665.022 1981.843 3667.184 2451.379 2186.551 2458.181 1095.758 1377.366 -781.246 1385.987 -783.397 916.451 1288.085 906.931 2378.884 1987.753 3665.022 1981.843" fill="#e6e6e6" mix-blend-mode="multiply" opacity=".72" stroke-width="0"/>
          </g>
          <path d="m11.589,1129.252l138.927,238.098L13.783,1606.714l-275.661,1.266-138.928-238.098,1.118-1.964,135.616-237.401,275.662-1.266Zm129.892,238.14L7.107,1137.098l-266.626,1.225-132.252,231.519,134.374,230.294,266.626-1.225,132.252-231.519Z" fill="#fff" opacity=".09" stroke-width="0"/>
          <polygon points="-37.161 1247.848 117.778 1247.136 194.631 1112.599 116.545 978.773 -38.394 979.485 -115.247 1114.022 -37.161 1247.848" fill="#fff" opacity=".09" stroke-width="0"/>
          <g mix-blend-mode="multiply" opacity=".67">
            <polygon points="5366.968 454.692 5369.844 1080.739 4011.74 1086.981 3450.284 530.661 885.106 542.444 882.229 -83.603 3706.722 -96.583 4268.178 459.738 5366.968 454.692" fill="#e6e6e6" mix-blend-mode="multiply" opacity=".78" stroke-width="0"/>
            <polygon points="5057.304 502.74 5058.022 659.258 2616.943 670.47 1898.916 1395.125 1787.737 1284.963 2551.394 514.256 5057.304 502.74" fill="#e6e6e6" mix-blend-mode="multiply" opacity=".53" stroke-width="0"/>
            <polygon points="4904.398 946.136 4905.117 1102.653 3732.792 1108.036 2604.324 -10.109 749.798 -1.589 749.079 -158.106 2668.43 -166.925 3796.903 951.226 4904.398 946.136" fill="#fff" mix-blend-mode="screen" opacity=".45" stroke-width="0"/>
            <polygon points="4297.588 1357.629 4299.024 1670.654 3144.086 1675.961 2251.872 791.908 1196.162 796.76 1194.718 483.732 2380.093 478.288 3272.308 1362.342 4297.588 1357.629" fill="#fff" mix-blend-mode="screen" opacity=".76" stroke-width="0"/>
            <rect x="2211.307" y="1178.809" width="2523.322" height="313.029" transform="translate(-6.076 15.91) rotate(-.262)" fill="#e6e6e6" mix-blend-mode="screen" opacity=".28" stroke-width="0"/>
            <polygon points="4849.019 -267.052 4851.181 202.483 3150.019 210.303 1860.716 1511.508 1527.177 1181.021 2953.377 -258.345 4849.019 -267.052" fill="#e6e6e6" mix-blend-mode="screen" opacity=".58" stroke-width="0"/>
            <polygon points="5073.064 319.271 5074.497 632.3 1173.354 650.223 1171.91 337.194 5073.064 319.271" fill="#fff" mix-blend-mode="screen" opacity=".2" stroke-width="0"/>
            <polygon points="4566.969 973.785 4569.131 1443.32 3088.498 1450.122 1997.705 369.307 120.702 377.928 118.55 -91.607 2190.033 -101.127 3280.831 979.694 4566.969 973.785" fill="#e6e6e6" mix-blend-mode="multiply" opacity=".72" stroke-width="0"/>
          </g>
          <polygon points="2592.319 1938.436 2974.133 1936.682 3163.522 1605.144 2971.095 1275.36 2589.281 1277.114 2399.893 1608.652 2592.319 1938.436" fill="#fff" opacity=".09" stroke-width="0"/>
          <path d="m2194.454,363.733l138.927,238.098-136.734,239.364-275.661,1.266-138.928-238.098,1.118-1.964,135.616-237.401,275.661-1.266Zm129.892,238.14l-134.374-230.294-266.626,1.225-132.252,231.519,134.374,230.294,266.626-1.225,132.252-231.519Z" fill="#fff" opacity=".09" stroke-width="0"/>
          <polygon points="2145.703 482.33 2300.642 481.618 2377.495 347.08 2299.409 213.255 2144.47 213.967 2067.617 348.504 2145.703 482.33" fill="#fff" opacity=".09" stroke-width="0"/>
          <polygon points="1389.244 842.024 1776.592 840.244 1968.725 503.901 1773.51 169.337 1386.162 171.117 1194.029 507.46 1389.244 842.024" fill="#fff" opacity=".09" stroke-width="0"/>
        </g>
      </g>
    </g>
  </g>
</svg>