<?xml version="1.0" encoding="UTF-8"?>
<svg id="b" data-name="Layer 2" xmlns="http://www.w3.org/2000/svg" xmlns:xlink="http://www.w3.org/1999/xlink" viewBox="0 0 88.26 64">
  <defs>
    <clipPath id="d">
      <rect x="20.301" y="26.604" width="46.825" height="34.325" fill="none" stroke-width="0"/>
    </clipPath>
    <clipPath id="e">
      <rect x="2.782" y="28.56" width="20.445" height="32.368" fill="none" stroke-width="0"/>
    </clipPath>
    <clipPath id="f">
      <rect x="55.838" y="31.983" width="29.097" height="28.945" fill="none" stroke-width="0"/>
    </clipPath>
    <clipPath id="g">
      <rect x="3.578" y="29.049" width="80.689" height="31.879" fill="none" stroke-width="0"/>
    </clipPath>
  </defs>
  <g id="c" data-name="Working">
    <g>
      <g>
        <rect x="2.188" y="11.148" width="83.446" height="50.795" fill="#f7931e" stroke-width="0"/>
        <g>
          <g clip-path="url(#d)">
            <path d="m66.219,60.926c.511-2.246.786-4.607.786-7.043,0-15.016-10.364-27.19-23.146-27.19s-23.146,12.174-23.146,27.19c0,2.436.273,4.797.786,7.043h44.722" fill="#ffc05e" stroke-width="0"/>
          </g>
          <g clip-path="url(#e)">
            <path d="m7.187,46.642c-.209,1.286-.449,2.428-.723,3.24-.144-1.274-.23-2.621-.266-3.24h.99Zm2.495,0c-.056.359-.116.699-.178,1.014-.062-.325-.121-.663-.178-1.014h.356Zm4.011-1.744c-.209,1.284-.451,2.426-.725,3.238-.142-1.274-.229-2.621-.265-3.238h.99Zm2.495,0c-.057.359-.116.699-.178,1.014-.062-.327-.122-.665-.18-1.014h.358Zm2.089-3.11c-.176,1.083-.376,2.063-.598,2.831-.126-.894-.232-1.87-.323-2.831h.921Zm2.495,0c-.057.359-.116.699-.18,1.014-.06-.325-.121-.663-.178-1.014h.358ZM2.82,56.913l1.672.099-.678,3.914h19.263v-12.966c-.261-.714-.487-1.857-.679-3.169h.64c-1.026-1.771-1.483-11.498-1.483-11.498,0,0-.204,4.183-.642,7.509-1.076-3.077-1.566-12.092-1.566-12.092,0,0-.622,11.431-2.004,12.942-.253-2.716-.372-5.249-.372-5.249,0,0-.204,4.183-.642,7.509-1.076-3.077-1.566-12.094-1.566-12.094,0,0-.64,11.765-2.064,13.003-.01-.174-.015-.271-.015-.271,0,0-.005.109-.015.298-.028.019-.054.036-.082.05h.078c-.047.823-.186,2.94-.426,4.457l-.003.002h.003c-.024.155-.051.304-.078.445l-.041.191c-.098.464-.287.888-.542,1.242-.096-.483-.186-1.02-.269-1.589h.64c-1.026-1.771-1.485-11.498-1.485-11.498,0,0-.204,4.183-.64,7.509-1.078-3.075-1.568-12.092-1.568-12.092,0,0-.639,11.765-2.063,13.001-.01-.172-.015-.271-.015-.271,0,0-.005.109-.016.298-.026.021-.054.038-.08.05h.077c-.047.823-.185,2.942-.426,4.458h-.002.002c-.024.157-.051.306-.077.445l-.041.193c-.219,1.028-.875,1.857-1.739,2.162l-.02.006,1.28.074s-.325,1.559-2.317,2.932" fill="#1d2c29" stroke-width="0"/>
          </g>
          <g clip-path="url(#f)">
            <path d="m60.311,44.48c-.198,1.215-.426,2.296-.686,3.064-.136-1.205-.217-2.479-.25-3.064h.936Zm2.361,0c-.054.338-.109.661-.168.959-.059-.308-.114-.628-.168-.959h.336Zm2.182,8.892l.136.008s-.031.151-.136.399v-.407Zm2.185-7.331c-.209,1.284-.451,2.426-.725,3.238-.142-1.274-.229-2.621-.265-3.238h.99Zm2.495,0c-.057.359-.116.699-.178,1.014-.062-.325-.122-.665-.18-1.014h.358Zm2.1-1.398c-.132.816-.279,1.568-.439,2.21-.118-.667-.22-1.423-.314-2.21h.753Zm2.361,0c-.054.34-.109.663-.168.961-.059-.308-.116-.628-.168-.961h.336Zm2.412,5.003c-.072.491-.149.959-.23,1.389v-.55c-.085-.233-.167-.518-.245-.839h.475Zm1.983-3.003c-.057.351-.116.69-.178,1.014-.062-.315-.122-.655-.178-1.014h.356Zm3.127,0c-.034.619-.121,1.966-.265,3.24-.274-.812-.514-1.954-.723-3.24h.988Zm-25.341,7.559l1.582.094-.237,6.632h26.38l-.678-3.914,1.671-.099c-1.992-1.373-2.316-2.932-2.316-2.932l1.28-.074-.02-.006c-.864-.306-1.52-1.135-1.739-2.162l-.041-.193c-.028-.139-.052-.288-.078-.445h.005-.005c-.238-1.517-.377-3.635-.425-4.458h.077c-.026-.011-.054-.029-.08-.05-.011-.189-.016-.298-.016-.298,0,0-.005.099-.015.271-1.424-1.236-2.063-13.001-2.063-13.001,0,0-.49,9.016-1.566,12.092-.439-3.326-.642-7.509-.642-7.509,0,0-.426,9.02-1.372,11.268-.126-.56-.242-1.219-.345-1.933h.606c-.972-1.675-1.404-10.881-1.404-10.881,0,0-.194,3.96-.608,7.108-1.021-2.913-1.485-11.446-1.485-11.446,0,0-.557,10.26-1.793,12.118-.366-3.223-.536-6.837-.536-6.837,0,0-.204,4.183-.642,7.509-1.076-3.077-1.566-12.094-1.566-12.094,0,0-.64,11.767-2.064,13.003-.01-.172-.015-.271-.015-.271,0,0-.005.109-.015.298-.028.019-.054.036-.082.05h.078c-.047.823-.186,2.942-.426,4.457l-.003.002h.003c-.024.157-.051.304-.077.445l-.041.191c-.109.506-.322.963-.614,1.333v-2.147c-.247-.676-.461-1.757-.642-3.001h.606c-.972-1.675-1.404-10.882-1.404-10.882,0,0-.194,3.96-.608,7.108-1.019-2.911-1.483-11.446-1.483-11.446,0,0-.606,11.137-1.953,12.307-.01-.164-.013-.258-.013-.258,0,0-.007.103-.016.283-.024.019-.049.034-.075.048h.073c-.046.779-.176,2.783-.403,4.218l-.003.002h.002c-.023.147-.047.288-.072.42l-.039.181c-.207.974-.828,1.759-1.646,2.048-.007.002-.011.004-.018.006l1.212.071s-.307,1.475-2.193,2.776" fill="#1d2c29" stroke-width="0"/>
          </g>
          <g clip-path="url(#g)">
            <path d="m83.903,60.926l-4.409-2.031c-1.266-1.507-4.992-4.991-5.464-4.649-.995.718-3.139-5.459-3.139-5.459l-.766,1.364-3.444-6.823-1.06,3.505c-.702-1.389-1.119-.961-1.251-.753-.029.048-.046.086-.046.086l-3.789-7.687-3.444,6.823-.766-1.364v.002c-.036.103-2.152,6.168-3.139,5.457-.065-.048-.191-.025-.364.057-1.058-2.248-1.955-4.833-1.955-4.833l-1.124,2.002-5.055-10.011-1.555,5.142c-1.031-2.038-1.641-1.412-1.834-1.104-.046.071-.067.124-.067.124l-5.561-11.278-5.053,10.013-1.124-2.002v.004-.002c-.054.153-3.158,9.051-4.605,8.008-.933-.674-9.546,6.199-15.912,12.223l-5.164,3.184h80.088" fill="#1d2c29" stroke-width="0"/>
          </g>
          <path d="m55.81,49.729h.002c.465-.926.33-1.647.699-2.965.034-.124.054-.269.062-.43l.554.986,2.861-5.658c-.121,1.24-.15,2.68.1,4,.612,3.232-.585,4.168.129,5.03.712.86-.345,2.361.318,2.944.663.581,1.504-3.805,2.309-2.944.576.617,1.401-1.866,2.076-3.154l.709,1.402.452-.917c.016.514.073,1.007.189,1.444.612,2.3-1.071,2.77-.612,3.648.278.529.629,2.59,1.06,4.099l-7.362-.968c-1.357-1.836-3.165-4.134-3.885-3.614-.315.227-.707-.017-1.132-.539.552-1.198,1.099-2.6,1.471-2.365" fill="#687b70" stroke-width="0"/>
          <path d="m20.812,51.662c1.078.569.359,1.263.482,1.948l-7.627,2.56c3.092-2.26,6.167-5.026,7.145-4.508" fill="#687b70" stroke-width="0"/>
          <path d="m24.668,51.662c1.179,1.261,3.062-6.292,4.073-5.66l.002.002c.684-1.358.485-2.415,1.024-4.35.051-.181.08-.395.095-.632l.812,1.45,4.197-8.304c-.178,1.82-.22,3.931.147,5.868.898,4.743-.861,6.116.188,7.379,1.047,1.263-.505,3.463.467,4.319.973.854,2.208-5.582,3.387-4.319.848.907,2.058-2.737,3.047-4.627l1.04,2.057.663-1.345c.023.753.108,1.477.279,2.12.898,3.373-1.573,4.061-.9,5.35.25.476,3.872,2.911,4.537,6.724l-5.468-2.136-4.881-1.169-6.773,1.169-4.228-3.654-3.48,1.167c.544-.986,1.112-2.118,1.772-1.412" fill="#687b70" stroke-width="0"/>
        </g>
      </g>
      <rect y="1.503" width="2.6" height="61.22" stroke-width="0"/>
      <rect x="85.633" y="1.547" width="2.6" height="61.327" stroke-width="0"/>
      <rect x="27.338" y="4.714" width="35.648" height="1.933" rx=".966" ry=".966" stroke-width="0"/>
      <g>
        <rect x="76.862" y="4.211" width="5.481" height="1.07" rx=".458" ry=".458" stroke-width="0"/>
        <rect x="76.862" y="6.309" width="5.481" height="1.07" rx=".458" ry=".458" stroke-width="0"/>
      </g>
      <g>
        <ellipse cx="6.545" cy="5.775" rx="1.329" ry="1.32" stroke-width="0"/>
        <ellipse cx="11.862" cy="5.775" rx="1.329" ry="1.32" stroke-width="0"/>
        <ellipse cx="17.18" cy="5.775" rx="1.329" ry="1.32" stroke-width="0"/>
      </g>
      <rect x="42.813" y="-42.812" width="2.635" height="88.259" rx="1.199" ry="1.199" transform="translate(42.813 45.448) rotate(-90)" stroke-width="0"/>
      <rect x=".276" y="9.179" width="87.91" height="1.947" rx=".974" ry=".974" stroke-width="0"/>
      <rect x="42.781" y="18.536" width="2.707" height="88.222" rx="1.353" ry="1.353" transform="translate(-18.512 106.781) rotate(-90)" stroke-width="0"/>
    </g>
  </g>
</svg>