<?xml version="1.0" encoding="UTF-8"?>
<svg id="Layer_2" data-name="Layer 2" xmlns="http://www.w3.org/2000/svg" xmlns:xlink="http://www.w3.org/1999/xlink" viewBox="0 0 88.259 64">
  <defs>
    <clipPath id="clippath">
      <rect x="14.408" y="21.863" width="62.834" height="39.379" fill="none" stroke-width="0"/>
    </clipPath>
  </defs>
  <g id="Layer_1-2" data-name="Layer 1">
    <g id="Icon-Black">
      <g id="Screen">
        <rect id="Background" x="1.668" y="10.215" width="84.518" height="51.925" fill="#f7931e" stroke-width="0"/>
        <g id="Screen-2" data-name="Screen">
          <rect id="Left" y="1.503" width="2.6" height="61.22" stroke-width="0"/>
          <rect id="Right" x="85.633" y="1.547" width="2.6" height="61.327" stroke-width="0"/>
          <g id="ToolBar">
            <g id="Navbar">
              <rect id="Searchbar" x="27.338" y="4.714" width="35.648" height="1.933" rx=".966" ry=".966" stroke-width="0"/>
              <g id="Menu">
                <rect x="76.862" y="4.211" width="5.481" height="1.07" rx=".458" ry=".458" stroke-width="0"/>
                <rect x="76.862" y="6.309" width="5.481" height="1.07" rx=".458" ry=".458" stroke-width="0"/>
              </g>
              <g id="Buttons">
                <ellipse cx="6.545" cy="5.775" rx="1.329" ry="1.32" stroke-width="0"/>
                <ellipse cx="11.862" cy="5.775" rx="1.329" ry="1.32" stroke-width="0"/>
                <ellipse cx="17.18" cy="5.775" rx="1.329" ry="1.32" stroke-width="0"/>
              </g>
            </g>
            <rect id="Top" width="88.259" height="2.635" rx="1.199" ry="1.199" stroke-width="0"/>
            <path id="Bottom" d="m1.25,9.179h85.962c.538,0,.974.436.974.974h0c0,.538-.436.973-.974.973H1.25c-.538,0-.974-.436-.974-.974h0c0-.538.436-.973.974-.973Z" stroke-width="0"/>
          </g>
          <rect id="Bottom-2" data-name="Bottom" x=".024" y="61.293" width="88.222" height="2.707" rx="1.353" ry="1.353" stroke-width="0"/>
        </g>
      </g>
      <g id="Foreground">
        <g id="g">
          <g clip-path="url(#clippath)">
            <path d="m76.026,61.239c.686-2.577,1.054-5.286,1.054-8.08,0-17.227-13.907-31.193-31.06-31.193s-31.06,13.966-31.06,31.193c0,2.794.366,5.503,1.054,8.08h60.011" fill="#ffc845" stroke-width="0"/>
          </g>
        </g>
        <g id="i">
          <path d="m86.074,57.323c-.283-.919-.342-1.913-.182-2.865-.133-.387-.22-.79-.272-1.198-1.427-1.293-3.327-5.947-3.327-5.947l-1.028,1.565-4.622-7.828-1.422,4.021c-.942-1.593-1.501-1.102-1.679-.863-.039.055-.061.099-.061.099l-5.084-8.818-4.622,7.828-1.028-1.565v.002c-.048.118-2.888,7.076-4.212,6.261-.088-.055-.256-.029-.489.066-1.42-2.579-2.623-5.544-2.623-5.544l-1.508,2.297-6.783-11.486-2.086,5.899c-1.383-2.338-2.202-1.619-2.461-1.267-.061.081-.09.142-.09.142l-7.462-12.938-6.781,11.488-1.508-2.297v.002c-.072.175-4.238,10.383-6.18,9.187-1.119-.692-10.477,5.544-18.555,11.815,0,.024-.006.048-.007.073.018.223.002.446-.004.67.027.313.021.627,0,.941.013.151-.004.303-.002.455.042.473.011.949-.055,1.418.124.762.101,1.55-.059,2.305h84.177c-.039-.413-.035-.829.008-1.242-.01-.122,0-.245-.004-.367-.06-.607-.03-1.223.087-1.821-.029-.162-.063-.323-.08-.487h.004Z" fill="#192a2c" stroke-width="0"/>
          <path d="m62.057,48.393h.002c.625-1.063.443-1.889.938-3.401.046-.142.072-.309.083-.493l.743,1.131,3.839-6.491c-.162,1.422-.202,3.075.134,4.589.822,3.708-.785,4.782.173,5.77.955.986-.462,2.709.427,3.377.89.666,2.018-4.365,3.099-3.377.774.708,1.88-2.141,2.785-3.618l.951,1.609.607-1.052c.022.59.099,1.155.254,1.657.822,2.639-1.438,3.178-.822,4.186.373.607.844,2.972,1.422,4.703l-9.879-1.111c-1.821-2.106-4.247-4.742-5.214-4.146-.423.261-.949-.02-1.519-.618.741-1.374,1.475-2.983,1.975-2.713" fill="#4c7b6f" stroke-width="0"/>
          <path d="m15.094,50.61c1.446.653.482,1.449.646,2.235l-10.234,2.937c4.148-2.593,8.275-5.766,9.588-5.172" fill="#4c7b6f" stroke-width="0"/>
          <path d="m20.268,50.61c1.582,1.446,4.109-7.219,5.466-6.493l.002.002c.918-1.558.651-2.77,1.374-4.99.068-.208.107-.454.127-.725l1.089,1.663,5.632-9.526c-.239,2.088-.296,4.51.197,6.732,1.205,5.441-1.155,7.017.252,8.466,1.405,1.449-.677,3.973.627,4.955,1.306.98,2.963-6.403,4.545-4.955,1.137,1.041,2.761-3.14,4.089-5.308l1.396,2.36.89-1.543c.031.863.145,1.694.375,2.433,1.205,3.87-2.11,4.659-1.207,6.138.335.546,5.196,3.34,6.088,7.714l-7.337-2.45-6.55-1.341-9.088,1.341-5.674-4.192-4.67,1.339c.73-1.131,1.492-2.43,2.378-1.619" fill="#4c7b6f" stroke-width="0"/>
        </g>
      </g>
    </g>
  </g>
</svg>