<?xml version="1.0" encoding="UTF-8"?>
<svg id="Layer_2" data-name="Layer 2" xmlns="http://www.w3.org/2000/svg" xmlns:xlink="http://www.w3.org/1999/xlink" viewBox="0 0 88.259 64">
  <defs>
    <clipPath id="clippath">
      <rect x="14.408" y="21.863" width="62.834" height="39.379" fill="none" stroke-width="0"/>
    </clipPath>
  </defs>
  <g id="Layer_1-2" data-name="Layer 1">
    <g id="Icon-White">
      <g id="Screen">
        <rect id="Background" x="1.668" y="10.215" width="84.518" height="51.925" fill="#f7931e" stroke-width="0"/>
        <g id="Screen-2" data-name="Screen">
          <rect id="Left" y="1.503" width="2.6" height="61.22" fill="#f2f2f2" stroke-width="0"/>
          <rect id="Right" x="85.633" y="1.547" width="2.6" height="61.327" fill="#f2f2f2" stroke-width="0"/>
          <g id="ToolBar">
            <g id="Navbar">
              <rect id="Searchbar" x="27.338" y="4.714" width="35.648" height="1.933" rx=".966" ry=".966" fill="#f2f2f2" stroke-width="0"/>
              <g id="Menu">
                <rect x="76.862" y="4.211" width="5.481" height="1.07" rx=".458" ry=".458" fill="#f2f2f2" stroke-width="0"/>
                <rect x="76.862" y="6.309" width="5.481" height="1.07" rx=".458" ry=".458" fill="#f2f2f2" stroke-width="0"/>
              </g>
              <g id="Buttons">
                <ellipse cx="6.545" cy="5.775" rx="1.329" ry="1.32" fill="#f2f2f2" stroke-width="0"/>
                <ellipse cx="11.862" cy="5.775" rx="1.329" ry="1.32" fill="#f2f2f2" stroke-width="0"/>
                <ellipse cx="17.18" cy="5.775" rx="1.329" ry="1.32" fill="#f2f2f2" stroke-width="0"/>
              </g>
            </g>
            <rect id="Top" width="88.259" height="2.635" rx="1.199" ry="1.199" fill="#f2f2f2" stroke-width="0"/>
            <path id="Bottom" d="m1.25,9.179h85.962c.538,0,.974.436.974.974h0c0,.538-.436.973-.974.973H1.25c-.538,0-.974-.436-.974-.974h0c0-.538.436-.973.974-.973Z" fill="#f2f2f2" stroke-width="0"/>
          </g>
          <rect id="Bottom-2" data-name="Bottom" x=".024" y="61.293" width="88.222" height="2.707" rx="1.353" ry="1.353" fill="#f2f2f2" stroke-width="0"/>
        </g>
      </g>
      <g id="Foreground">
        <g id="Sun">
          <g clip-path="url(#clippath)">
            <path d="m76.026,61.239c.686-2.577,1.054-5.286,1.054-8.08,0-17.227-13.907-31.193-31.06-31.193s-31.06,13.966-31.06,31.193c0,2.794.366,5.503,1.054,8.08h60.011" fill="#ffc845" stroke-width="0"/>
          </g>
        </g>
        <g id="Mountains">
          <path d="m85.894,62.602c-.04-.455-.027-.912.034-1.366-.01-.134.005-.269.002-.404-.062-.669-.013-1.346.142-2.001-.032-.179-.071-.357-.089-.537h.005c-.33-1.018-.383-2.112-.168-3.156-.156-.428-.255-.874-.311-1.323-1.726-1.453-3.969-6.612-3.969-6.612l-1.292,1.699-5.522-8.708-1.822,4.392c-1.125-1.772-1.821-1.244-2.044-.985-.049.06-.077.108-.077.108l-6.07-9.807-5.822,8.51-1.231-1.743v.002c-.061.129-3.68,7.72-5.289,6.796-.107-.062-.314-.037-.601.062-1.693-2.867-3.112-6.154-3.112-6.154l-1.895,2.494-8.103-12.778-2.673,6.443c-1.652-2.601-2.671-1.828-2.996-1.446-.076.088-.113.154-.113.154l-8.909-14.389-8.542,12.489-1.806-2.559v.002c-.092.191-7.455,10.379-7.76,9.972-.236.536-.893,1.726-4.611,6.456-.002.026-.033,8.339-.093,8.193.018.246-.044,4.785-.056,5.032" fill="#192a2c" stroke-width="0"/>
          <path d="m57.153,47.666h.002c.769-1.129.567-2.021,1.189-3.636.058-.152.092-.331.109-.528l.87,1.231,4.726-6.896c-.221,1.525-.3,3.301.075,4.935.916,4.003-1.031,5.123.099,6.205,1.127,1.08-.605,2.902.449,3.639,1.055.734,2.502-4.649,3.78-3.565.915.777,2.295-2.262,3.408-3.83l1.11,1.749.748-1.118c.015.635.097,1.244.274,1.786.936,2.854-1.784,3.386-1.064,4.482.436.66.956,3.212,1.617,5.085l-11.827-1.401c-2.144-2.302-5.004-5.186-6.175-4.565-.512.272-1.138-.041-1.81-.696.914-1.461,1.825-3.175,2.419-2.875" fill="#4c7b6f" stroke-width="0"/>
          <path d="m6.995,49.174c2.973-4.048,5.063-7.673,6.677-6.865l.674-1.498c1.13-1.655.161-1.463,1.069-3.834.085-.222.137-.486.166-.777l1.275,1.81,6.933-10.121c-.326,2.239-.44,4.841.11,7.24,1.343,5.873-1.517,7.518.143,9.105,1.658,1.587-.886,4.256.659,5.339,1.548,1.081,3.674-6.82,5.544-5.231,1.344,1.143,3.37-3.317,5.003-5.62l1.63,2.566,1.096-1.64c.021.928.142,1.824.404,2.623,1.373,4.185-2.618,4.964-1.563,6.572.392.594,6.169,3.699,7.156,8.419l-8.753-2.787-7.83-1.578-10.924,1.251-6.726-4.625-5.626,1.341c.897-1.2,1.835-2.581,2.882-1.69" fill="#4c7b6f" stroke-width="0"/>
        </g>
      </g>
    </g>
  </g>
</svg>