<?xml version="1.0" standalone="no"?>
<svg version="1.0" xmlns="http://www.w3.org/2000/svg"
  width="700.000000pt" height="700.000000pt" viewBox="0 0 700.000000 700.000000"
  preserveAspectRatio="xMidYMid meet">
<g transform="translate(0.000000,700.000000) scale(0.100000,-0.100000)"
fill="#000000" stroke="none">
<path d="M78 6022 c-15 -2 -38 -17 -53 -33 l-25 -31 2 -2488 c3 -2472 3 -2488
23 -2510 11 -12 31 -27 45 -32 16 -6 1283 -9 3432 -9 3033 0 3410 1 3436 15
63 32 58 -156 57 2551 -1 1922 -4 2475 -13 2492 -7 13 -22 28 -35 35 -17 10
-747 12 -3432 13 -1876 0 -3422 -1 -3437 -3z m6700 -211 c9 -1 12 -60 12 -261
l0 -260 -3289 0 c-2622 0 -3290 3 -3293 13 -3 10 -3 433 1 492 1 20 8 20 3279
19 1802 -1 3283 -2 3290 -3z"/>
<path d="M6122 5681 c-19 -12 -23 -48 -6 -62 25 -20 362 -22 386 -1 15 13 17
47 2 61 -7 8 -370 10 -382 2z"/>
<path d="M494 5663 c-34 -6 -77 -58 -76 -92 1 -52 24 -85 68 -100 51 -18 92
-4 117 38 47 80 -17 169 -109 154z"/>
<path d="M915 5661 c-91 -28 -103 -142 -20 -187 29 -15 39 -16 74 -5 72 21 95
106 44 160 -30 31 -65 43 -98 32z"/>
<path d="M1296 5636 c-50 -46 -50 -94 -1 -143 29 -29 40 -34 68 -30 18 2 43
10 56 16 28 16 51 68 44 103 -7 38 -53 78 -96 83 -30 4 -41 0 -71 -29z"/>
<path d="M2244 5651 c-50 -9 -76 -69 -50 -119 8 -16 23 -32 31 -36 9 -3 621
-6 1360 -6 1303 0 1343 1 1366 19 32 26 33 92 2 122 l-22 22 -1334 1 c-733 1
-1342 -1 -1353 -3z"/>
<path d="M6115 5504 c-13 -14 -13 -47 1 -62 2 -4 320 -6 366 -3 25 1 41 36 28
61 -10 19 -21 20 -195 20 -155 0 -186 -2 -200 -16z"/>
</g>
</svg>
