<?xml version="1.0" standalone="no"?>
<!DOCTYPE svg PUBLIC "-//W3C//DTD SVG 20010904//EN"
 "http://www.w3.org/TR/2001/REC-SVG-20010904/DTD/svg10.dtd">
<svg version="1.0" xmlns="http://www.w3.org/2000/svg"
 width="704.000000pt" height="704.000000pt" viewBox="0 0 704.000000 704.000000"
 preserveAspectRatio="xMidYMid meet">
<metadata>
Created by potrace 1.14, written by Peter Selinger 2001-2017
</metadata>
<g transform="translate(0.000000,704.000000) scale(0.100000,-0.100000)"
fill="#000000" stroke="none">
<path d="M51 6056 c-53 -30 -50 125 -51 -2529 0 -2265 1 -2472 16 -2503 9 -19
29 -41 45 -49 24 -13 475 -15 3459 -15 3095 0 3434 2 3461 16 63 32 59 -151
59 2549 0 2683 4 2506 -55 2533 -40 19 -6900 17 -6934 -2z m6777 -458 l-3
-263 -3310 0 -3310 0 -3 250 c-1 137 0 255 3 262 3 11 651 13 3315 13 l3310 0
-2 -262z m1 -2140 c-1 -948 -3 -1715 -6 -1705 -2 9 -18 32 -34 50 -53 56 -128
178 -207 334 -42 84 -79 153 -82 153 -3 0 -25 -27 -48 -60 -24 -33 -47 -60
-50 -60 -4 0 -104 153 -222 340 -118 186 -218 336 -221 332 -4 -4 -33 -70 -64
-147 -84 -206 -74 -194 -117 -141 -43 50 -79 64 -113 42 -23 -15 -24 -14 -261
369 -131 212 -240 385 -243 385 -3 0 -109 -152 -235 -336 l-228 -336 -33 47
c-19 25 -40 56 -48 68 -8 12 -17 20 -19 17 -3 -3 -33 -59 -67 -124 -108 -208
-223 -366 -291 -401 -15 -8 -46 -12 -71 -10 -43 3 -45 5 -81 66 -20 35 -74
141 -120 236 -46 95 -86 173 -89 173 -4 0 -37 -40 -74 -90 -37 -50 -70 -90
-74 -90 -5 0 -178 270 -616 962 l-31 48 -103 -250 c-57 -137 -107 -250 -110
-250 -4 0 -23 21 -42 46 -64 86 -141 112 -192 67 -9 -9 -19 -14 -21 -12 -2 2
-51 81 -108 174 -58 94 -208 337 -333 540 -126 204 -236 383 -246 398 l-17 29
-338 -496 c-187 -273 -341 -496 -344 -496 -3 0 -34 43 -70 95 -36 52 -68 95
-72 95 -3 0 -41 -48 -84 -107 -245 -338 -505 -673 -524 -673 -4 0 -22 -24 -38
-52 -30 -54 -160 -238 -206 -293 l-25 -30 -1 1408 0 1407 3310 0 3310 0 -1
-1722z m-4944 130 c0 -206 3 -246 23 -343 34 -158 33 -302 -3 -460 -35 -154
-34 -187 3 -234 16 -20 34 -46 40 -58 16 -30 15 -115 -3 -188 -23 -97 -20
-142 14 -175 53 -53 84 -26 212 186 123 205 170 250 229 219 86 -45 133 -1
310 283 52 84 97 152 101 152 4 0 33 -43 65 -95 33 -52 62 -94 65 -95 3 0 24
26 45 58 l38 57 8 -55 c4 -30 17 -95 29 -143 16 -64 20 -108 17 -160 -5 -82
-23 -123 -93 -212 -91 -116 -88 -130 59 -240 146 -108 252 -208 325 -305 63
-84 115 -184 126 -243 7 -36 7 -36 -21 -28 -16 5 -172 54 -347 110 -282 91
-353 109 -630 165 l-313 62 -435 -49 -436 -50 -259 178 c-142 98 -268 180
-279 182 -11 2 -112 -18 -225 -45 -113 -27 -207 -48 -209 -46 -10 9 88 119
122 137 33 17 42 18 68 7 20 -9 33 -10 37 -3 61 91 260 361 308 418 73 85 139
129 184 123 29 -4 31 -1 79 96 37 78 50 116 55 168 4 37 17 99 30 139 l23 71
48 -66 c25 -36 48 -66 50 -66 2 0 123 176 270 390 147 215 267 390 268 390 1
0 2 -105 2 -232z m3213 -643 c-8 -89 2 -234 22 -320 16 -69 11 -219 -10 -315
-21 -95 -20 -107 17 -156 26 -35 30 -92 12 -172 -14 -58 -6 -97 20 -112 29
-15 66 22 131 130 82 136 106 163 144 157 17 -2 39 -7 49 -12 26 -11 88 58
172 193 38 61 73 112 77 112 4 0 23 -27 44 -60 20 -33 40 -60 45 -60 4 0 18
17 30 37 l23 37 12 -59 c7 -33 17 -87 24 -120 16 -79 3 -125 -56 -205 -52 -68
-52 -70 -11 -185 33 -90 101 -325 96 -329 -2 -1 -213 23 -469 53 l-465 56
-125 125 c-193 194 -299 261 -373 238 -42 -13 -82 0 -117 37 l-22 24 56 90
c56 89 105 141 131 141 17 0 41 60 65 164 10 44 25 98 32 119 l14 38 33 -46
33 -46 37 53 c20 29 104 151 185 271 82 119 150 216 151 215 1 -2 -2 -43 -7
-93z"/>
<path d="M6140 5715 c-10 -12 -10 -21 -2 -40 l12 -25 199 0 c190 0 201 1 211
20 8 14 8 26 0 40 -10 19 -21 20 -209 20 -166 0 -201 -3 -211 -15z"/>
<path d="M471 5696 c-57 -32 -68 -111 -22 -157 78 -77 208 7 166 107 -24 58
-89 81 -144 50z"/>
<path d="M882 5685 c-51 -43 -51 -107 -1 -154 25 -23 86 -28 120 -11 22 12 49
61 49 89 0 85 -103 131 -168 76z"/>
<path d="M1299 5681 c-64 -65 -20 -171 71 -171 33 0 48 6 71 29 64 65 20 171
-71 171 -33 0 -48 -6 -71 -29z"/>
<path d="M2217 5679 c-46 -27 -41 -105 9 -128 18 -8 395 -11 1385 -11 l1360 0
24 25 c32 31 33 74 2 103 l-23 22 -1370 0 c-938 -1 -1375 -4 -1387 -11z"/>
<path d="M6136 5544 c-9 -24 -8 -31 10 -48 13 -13 46 -16 204 -16 158 0 191 3
204 16 19 18 19 20 6 45 -10 18 -23 19 -214 19 -177 0 -205 -2 -210 -16z"/>
</g>
</svg>
