<?xml version="1.0" standalone="no"?>
<!DOCTYPE svg PUBLIC "-//W3C//DTD SVG 20010904//EN"
 "http://www.w3.org/TR/2001/REC-SVG-20010904/DTD/svg10.dtd">
<svg version="1.0" xmlns="http://www.w3.org/2000/svg"
 width="1360.000000pt" height="1360.000000pt" viewBox="0 0 1360.000000 1360.000000"
 preserveAspectRatio="xMidYMid meet">
<metadata>
Created by potrace 1.14, written by Peter Selinger 2001-2017
</metadata>
<g transform="translate(0.000000,1360.000000) scale(0.100000,-0.100000)"
fill="#000000" stroke="none">
<path d="M115 11741 c-48 -22 -79 -54 -100 -103 -13 -34 -15 -525 -15 -4816 0
-4220 2 -4784 15 -4829 18 -61 84 -126 143 -142 28 -8 1998 -10 6663 -9 l6624
3 47 28 c29 17 57 44 73 71 l25 43 0 4822 c0 4152 -2 4825 -14 4849 -19 37
-54 68 -98 87 -34 13 -707 15 -6680 15 -6437 0 -6644 -1 -6683 -19z m13083
-898 l-3 -508 -6395 0 -6395 0 -3 508 -2 507 6400 0 6400 0 -2 -507z m-14
-814 c3 -3 5 -1443 4 -3200 l-3 -3194 -59 89 c-96 146 -214 358 -318 573 -55
112 -100 203 -102 203 -2 0 -45 -59 -96 -130 -52 -72 -97 -130 -101 -130 -4 0
-44 57 -90 128 -279 428 -360 560 -370 596 -25 92 -115 351 -176 506 -131 331
-291 633 -508 960 -438 658 -972 1170 -1656 1587 -703 429 -1566 689 -2394
721 -625 25 -1196 -52 -1783 -239 -453 -144 -854 -339 -1278 -620 -108 -72
-197 -129 -199 -127 -2 2 -87 136 -189 298 -103 162 -189 295 -191 295 -3 0
-47 -65 -98 -145 -51 -80 -174 -269 -272 -420 -98 -151 -226 -349 -285 -440
-59 -91 -200 -309 -314 -485 -115 -176 -234 -359 -265 -407 -31 -49 -59 -88
-63 -88 -4 0 -73 93 -155 206 -130 181 -148 203 -151 179 -4 -34 3 -22 -216
-340 -486 -705 -909 -1273 -940 -1262 -6 2 -34 -40 -63 -94 -59 -113 -290
-459 -430 -645 l-22 -29 -1 2833 0 2833 6389 -3 c3514 -2 6392 -6 6395 -9z
m-5569 -1469 c559 -59 1099 -212 1602 -455 524 -253 964 -565 1374 -975 412
-411 729 -853 979 -1365 120 -245 145 -313 77 -212 -13 21 -27 35 -29 30 -3
-4 -63 -156 -133 -338 -70 -181 -131 -333 -134 -337 -4 -4 -26 17 -50 47 -47
62 -129 115 -176 115 -17 0 -48 -9 -69 -21 -21 -11 -39 -19 -41 -17 -1 2 -62
98 -135 213 -228 361 -412 652 -557 880 -76 121 -168 266 -204 322 -35 57 -67
102 -71 100 -7 -2 -54 -73 -393 -597 -359 -554 -487 -750 -490 -750 -2 0 -50
64 -107 142 l-103 142 -5 -34 c-9 -54 -201 -432 -319 -629 -125 -208 -198
-307 -285 -389 -75 -69 -122 -90 -166 -72 -17 7 -45 9 -67 6 l-38 -7 -97 173
c-106 190 -238 447 -340 661 l-65 139 -142 -196 c-79 -108 -146 -196 -149
-196 -4 0 -20 21 -37 48 -16 26 -91 142 -166 257 -75 116 -216 334 -314 485
-98 151 -235 363 -305 470 -69 107 -204 316 -300 463 -95 147 -177 264 -180
260 -4 -4 -21 -44 -38 -88 -28 -74 -287 -742 -334 -862 -12 -29 -24 -53 -27
-52 -3 0 -30 32 -60 70 -96 127 -214 199 -301 184 -21 -4 -58 -20 -81 -37 -22
-16 -42 -28 -44 -26 -2 2 -168 264 -370 583 -202 319 -414 654 -472 744 -57
89 -102 169 -100 175 3 7 79 62 169 123 741 500 1569 784 2458 843 203 13 615
3 835 -20z m-3996 -1436 c-14 -170 -6 -530 15 -670 8 -55 31 -172 50 -260 47
-217 60 -323 59 -499 0 -171 -10 -246 -60 -465 -64 -283 -58 -344 46 -464 102
-117 111 -190 60 -453 -34 -178 -35 -253 -1 -320 35 -68 87 -100 146 -89 77
15 153 113 321 416 194 348 292 470 377 470 13 0 46 -14 73 -30 81 -48 137
-37 226 47 98 90 137 151 468 711 40 67 74 122 76 122 2 0 60 -88 130 -195 70
-107 130 -195 134 -195 3 1 37 51 76 113 l69 111 13 -94 c7 -51 22 -128 33
-169 64 -235 70 -266 70 -347 0 -46 -5 -107 -11 -136 -17 -81 -80 -202 -170
-323 -45 -60 -90 -128 -100 -150 -34 -74 -20 -154 37 -206 16 -14 99 -77 184
-139 437 -318 676 -571 827 -875 43 -85 89 -213 80 -221 -6 -6 -111 25 -867
257 -424 129 -474 142 -730 189 -151 28 -429 80 -617 115 l-343 64 -147 -20
c-82 -12 -461 -63 -843 -114 l-695 -93 -57 36 c-32 21 -272 181 -533 357
l-475 319 -173 -44 c-94 -24 -278 -72 -407 -106 -129 -34 -237 -61 -238 -59
-6 5 112 156 144 186 71 66 140 85 194 54 36 -20 63 -18 81 8 9 12 107 157
218 321 266 393 355 511 470 627 131 130 177 150 294 127 14 -2 28 20 68 112
27 63 70 156 96 206 45 90 46 94 54 221 4 72 13 150 19 174 28 106 63 208 70
204 4 -3 47 -59 95 -126 l88 -121 74 113 c41 63 130 200 197 304 68 105 226
348 351 540 125 193 264 407 309 477 45 69 82 125 83 124 2 -1 -2 -65 -8 -142z
m6298 -1541 c0 -224 8 -304 53 -508 46 -210 46 -401 -1 -610 -47 -209 -44
-249 26 -335 63 -76 72 -126 49 -250 -9 -52 -19 -131 -21 -175 -3 -68 -1 -85
17 -113 23 -37 70 -61 106 -54 38 7 113 99 183 223 121 214 165 283 211 331
52 54 77 59 125 28 41 -27 73 -25 127 9 72 46 131 131 333 478 33 57 63 103
66 103 4 0 44 -58 90 -130 45 -71 85 -130 89 -130 3 0 25 32 50 72 l44 72 12
-69 c7 -39 24 -115 39 -170 23 -83 26 -113 23 -185 -6 -108 -21 -144 -119
-282 -71 -100 -79 -115 -79 -157 0 -28 8 -59 20 -79 27 -43 76 -187 154 -449
36 -120 72 -238 81 -262 8 -24 14 -45 13 -47 -2 -1 -284 26 -628 61 -344 35
-746 76 -895 91 l-270 27 -210 207 c-296 291 -438 407 -579 474 -91 44 -138
51 -195 31 -60 -21 -104 -19 -154 6 -45 23 -107 70 -107 81 0 3 30 57 67 120
140 238 206 318 262 318 50 0 94 112 155 396 14 66 34 145 44 174 l18 53 59
-82 c32 -45 62 -80 67 -79 7 3 82 117 542 826 72 111 131 202 132 202 1 0 1
-98 1 -217z"/>
<path d="M11890 11080 c-24 -24 -26 -77 -4 -108 l15 -22 363 0 c410 0 396 -3
396 77 0 75 10 73 -393 73 -344 0 -358 -1 -377 -20z"/>
<path d="M925 11041 c-119 -53 -151 -207 -64 -306 87 -99 261 -79 320 37 86
168 -86 347 -256 269z"/>
<path d="M1745 11042 c-119 -56 -151 -208 -64 -307 62 -70 178 -85 258 -32
107 71 107 253 -1 325 -53 34 -136 41 -193 14z"/>
<path d="M2565 11042 c-155 -74 -151 -290 7 -357 169 -70 337 115 248 273 -50
89 -165 127 -255 84z"/>
<path d="M4341 11027 c-19 -7 -48 -29 -65 -50 -27 -34 -31 -47 -31 -97 0 -63
16 -95 69 -134 l27 -21 2619 0 2619 0 28 21 c42 32 67 81 67 134 0 63 -29 109
-84 138 l-44 22 -2586 -1 c-1976 0 -2593 -3 -2619 -12z"/>
<path d="M11896 10759 c-48 -37 -31 -120 27 -134 12 -3 176 -5 365 -3 327 3
344 4 358 22 15 21 19 83 6 102 -20 31 -54 34 -390 34 -328 0 -340 -1 -366
-21z"/>
<path d="M8138 7742 c-41 -44 -83 -97 -93 -119 l-17 -40 -137 -17 c-75 -10
-145 -20 -156 -23 -12 -4 49 -20 148 -39 234 -46 218 -45 232 -4 87 242 113
320 106 320 -5 0 -42 -35 -83 -78z"/>
<path d="M6350 7681 c0 -12 215 -630 222 -637 3 -2 119 17 259 42 140 25 282
50 316 56 34 6 60 15 57 19 -8 13 -189 67 -284 85 -52 10 -113 14 -157 12
l-73 -5 -170 220 c-93 121 -170 215 -170 208z"/>
<path d="M8892 6960 c-103 -135 -182 -286 -182 -344 0 -13 -6 -28 -12 -33 -7
-6 -121 -47 -253 -92 -132 -45 -249 -86 -260 -92 -13 -6 95 -7 325 -4 189 4
346 7 347 9 9 8 106 627 100 633 -3 2 -32 -32 -65 -77z"/>
</g>
</svg>
