<?xml version="1.0" standalone="no"?>
<svg version="1.0" xmlns="http://www.w3.org/2000/svg"
width="1360.000000pt" height="1360.000000pt" viewBox="0 0 1360.000000 1360.000000"
preserveAspectRatio="xMidYMid meet">
<metadata>
Created by potrace 1.14, written by Peter Selinger 2001-2017
</metadata>
<g transform="translate(0.000000,1360.000000) scale(0.100000,-0.100000)"
fill="#000000" stroke="none">
<path d="M115 11741 c-49 -22 -91 -69 -105 -119 -8 -26 -10 -1450 -8 -4827 l3
-4791 26 -49 c18 -35 39 -59 74 -80 l48 -30 6626 -3 c4933 -2 6636 0 6666 9
58 16 100 52 129 111 l26 52 0 4795 c0 4641 -1 4797 -19 4836 -22 48 -54 79
-103 100 -34 13 -707 15 -6680 15 -6423 0 -6644 -1 -6683 -19z m13085 -896 l0
-505 -6400 0 -6400 0 0 505 0 505 6400 0 6400 0 0 -505z m-2277 -815 l2267 0
0 -3197 0 -3198 -69 105 c-102 156 -194 322 -306 553 -55 113 -104 205 -110
203 -5 -1 -50 -59 -100 -129 -49 -69 -92 -126 -95 -126 -3 -1 -105 153 -226
342 -164 252 -226 357 -238 400 -34 119 -135 407 -187 532 -70 170 -238 510
-324 655 -525 885 -1280 1595 -2164 2035 -261 130 -480 220 -714 295 -1057
336 -2138 330 -3187 -20 -444 -148 -852 -350 -1257 -626 l-152 -103 -19 27
c-11 15 -95 146 -186 292 -92 146 -171 269 -175 273 -4 4 -95 -126 -201 -290
-107 -164 -277 -426 -378 -583 -102 -157 -238 -366 -302 -465 -64 -99 -183
-282 -264 -407 -81 -125 -151 -230 -155 -232 -4 -3 -75 88 -157 202 -131 182
-149 204 -152 179 -4 -29 -68 -127 -326 -497 -484 -694 -808 -1122 -836 -1105
-5 3 -19 -19 -33 -48 -13 -29 -57 -107 -98 -172 -79 -127 -353 -520 -369 -530
-12 -7 -14 5628 -2 5639 4 4 1861 5 4127 2 2266 -3 5140 -5 6388 -6z m-3428
-1461 c914 -71 1795 -406 2550 -968 670 -499 1226 -1184 1571 -1935 67 -144
82 -191 38 -118 -24 39 -44 54 -44 32 0 -13 -250 -653 -259 -663 -4 -4 -27 16
-51 44 -86 103 -174 134 -250 88 -19 -12 -36 -17 -37 -13 -2 5 -79 128 -171
274 -93 146 -255 402 -361 570 -376 595 -425 670 -432 670 -6 0 -82 -115 -474
-720 -299 -462 -398 -614 -405 -623 -3 -4 -53 58 -111 139 -93 130 -104 142
-107 117 -5 -39 -171 -379 -271 -553 -167 -291 -302 -471 -395 -525 -37 -22
-51 -24 -126 -21 l-85 4 -77 133 c-78 134 -355 677 -397 777 -12 28 -25 52
-29 52 -4 0 -13 -10 -21 -22 -16 -26 -249 -348 -261 -362 -5 -4 -33 29 -63 75
-63 98 -363 561 -627 969 -102 156 -280 430 -395 609 -116 178 -215 324 -220
324 -10 -1 -66 -139 -275 -681 l-125 -323 -30 38 c-107 137 -224 223 -302 223
-41 0 -100 -23 -130 -52 l-22 -20 -54 83 c-30 46 -152 239 -272 429 -120 190
-277 437 -348 550 -72 113 -164 258 -205 323 -41 66 -71 122 -66 126 33 30
292 202 404 268 289 171 508 276 831 397 656 245 1373 342 2104 285z m-3884
-1526 c-17 -289 1 -534 60 -805 51 -235 60 -298 66 -469 7 -199 -3 -297 -58
-542 -40 -185 -48 -279 -28 -347 6 -21 40 -72 74 -114 34 -43 68 -96 75 -119
17 -59 14 -177 -9 -287 -48 -231 -46 -317 5 -392 32 -46 97 -79 139 -71 73 15
192 172 341 448 207 387 313 487 429 408 96 -65 195 -15 333 170 71 95 103
146 312 499 67 115 126 206 130 203 4 -3 63 -90 130 -195 67 -104 125 -190
128 -190 4 0 36 48 71 105 36 58 68 105 73 105 4 0 8 -15 8 -32 0 -52 29 -203
55 -287 39 -130 49 -183 48 -281 -2 -161 -42 -259 -184 -451 -120 -162 -137
-213 -100 -296 14 -31 40 -57 98 -99 500 -368 684 -539 859 -801 91 -138 209
-405 171 -390 -13 5 -489 150 -1017 311 -285 86 -346 101 -645 156 -181 34
-454 84 -605 112 l-275 51 -160 -22 c-88 -12 -331 -44 -540 -71 -209 -27 -518
-68 -686 -91 l-307 -42 -333 223 c-184 123 -423 284 -532 358 l-198 134 -401
-106 c-220 -59 -402 -105 -405 -103 -5 6 70 102 126 160 50 53 107 87 143 87
13 0 39 -8 57 -18 19 -10 44 -17 55 -14 14 3 75 84 186 250 396 590 528 755
659 826 44 24 61 28 104 24 29 -3 58 -7 65 -9 8 -3 32 41 68 124 30 70 67 148
82 175 51 87 63 130 72 267 6 93 16 155 36 220 14 50 29 100 31 113 3 12 8 22
12 22 3 0 44 -54 90 -120 46 -66 88 -120 93 -120 5 0 43 53 85 118 42 64 129
198 193 297 65 99 211 324 325 500 325 503 399 614 403 610 2 -2 -1 -88 -7
-192z m6301 -1410 c-6 -191 8 -343 50 -546 27 -132 31 -173 32 -312 0 -144 -3
-176 -33 -319 -46 -219 -43 -244 56 -364 37 -46 41 -118 14 -259 -12 -60 -21
-129 -21 -152 0 -82 57 -151 125 -151 49 0 120 89 240 300 119 210 189 300
233 300 14 0 44 -9 67 -20 33 -16 47 -18 76 -10 74 21 183 162 348 453 46 81
87 147 91 147 3 0 44 -58 90 -129 61 -94 88 -127 96 -120 7 5 27 34 45 64 18
30 36 55 40 55 3 0 9 -27 13 -60 4 -33 18 -97 32 -142 31 -102 36 -217 11
-298 -15 -51 -39 -91 -140 -233 -55 -77 -57 -109 -14 -199 40 -84 76 -191 146
-438 28 -96 59 -202 71 -234 11 -33 18 -61 16 -63 -2 -3 -271 23 -598 56 -326
34 -726 74 -888 90 l-295 30 -205 203 c-426 422 -645 562 -790 504 -54 -21
-82 -20 -133 5 -69 36 -109 70 -104 91 8 27 152 265 201 332 50 66 92 99 119
92 38 -9 100 134 137 319 24 125 70 285 80 285 4 0 31 -34 61 -75 29 -41 57
-74 61 -73 6 3 577 877 647 991 12 20 24 37 26 37 1 0 0 -71 -3 -157z"/>
<path d="M11887 11082 c-23 -26 -22 -94 1 -115 17 -15 58 -17 379 -17 406 0
393 -3 393 77 0 75 10 73 -397 73 -336 0 -361 -1 -376 -18z"/>
<path d="M925 11043 c-103 -54 -142 -165 -92 -263 35 -70 85 -103 161 -108
104 -7 179 47 206 147 23 86 -24 185 -104 222 -50 23 -130 24 -171 2z"/>
<path d="M1745 11044 c-104 -57 -142 -166 -92 -264 33 -65 85 -102 151 -108
93 -8 160 27 198 101 45 88 16 201 -63 254 -52 34 -147 42 -194 17z"/>
<path d="M2565 11043 c-131 -68 -154 -225 -48 -325 36 -35 73 -48 131 -48 95
1 169 58 192 151 30 121 -66 240 -194 239 -28 -1 -64 -8 -81 -17z"/>
<path d="M4335 11026 c-94 -41 -124 -168 -58 -246 54 -65 -173 -60 2686 -60
l2604 0 33 23 c57 38 75 71 75 136 0 48 -5 64 -29 96 -54 71 174 65 -2688 65
-2133 -1 -2598 -3 -2623 -14z"/>
<path d="M11905 10768 c-29 -16 -35 -28 -35 -70 0 -25 7 -45 20 -58 19 -19 33
-20 373 -20 407 0 397 -2 397 80 0 82 10 80 -390 80 -238 -1 -351 -4 -365 -12z"/>
<path d="M8139 7743 c-47 -49 -91 -102 -98 -120 -16 -39 -10 -37 -188 -59 -79
-10 -143 -20 -143 -24 0 -6 391 -83 395 -78 10 14 127 360 123 363 -3 3 -43
-34 -89 -82z"/>
<path d="M6340 7697 c0 -13 222 -642 230 -650 7 -7 317 43 565 92 l90 17 -40
18 c-22 9 -87 31 -145 48 -87 25 -126 31 -228 34 l-122 3 -161 208 c-167 215
-189 242 -189 230z"/>
<path d="M8910 6990 c-98 -124 -190 -290 -204 -371 l-7 -37 -137 -48 c-75 -26
-198 -69 -272 -95 l-135 -48 352 0 c327 -1 352 0 357 17 10 35 97 614 93 625
-2 6 -23 -13 -47 -43z"/>
</g>
</svg>
