<?xml version="1.0" standalone="no"?>
<!DOCTYPE svg PUBLIC "-//W3C//DTD SVG 20010904//EN"
 "http://www.w3.org/TR/2001/REC-SVG-20010904/DTD/svg10.dtd">
<svg version="1.0" xmlns="http://www.w3.org/2000/svg"
 width="700.000000pt" height="700.000000pt" viewBox="0 0 700.000000 700.000000"
 preserveAspectRatio="xMidYMid meet">
<metadata>
Created by potrace 1.14, written by Peter Selinger 2001-2017
</metadata>
<g transform="translate(0.000000,700.000000) scale(0.100000,-0.100000)"
fill="#000000" stroke="none">
<path d="M29 6101 l-29 -29 0 -2472 c0 -2706 -4 -2522 59 -2554 27 -14 364
-16 3443 -16 3365 0 3413 0 3445 20 21 12 36 32 43 57 8 27 10 736 8 2506 l-3
2469 -28 24 -28 24 -3440 0 -3441 0 -29 -29z m6761 -436 l0 -265 -3290 0
-3290 0 0 265 0 265 3290 0 3290 0 0 -265z m0 -2061 c0 -974 -4 -1643 -9
-1640 -15 10 -116 184 -181 315 l-61 123 -51 -72 c-27 -39 -51 -70 -52 -68 -2
2 -52 80 -113 174 -90 140 -116 189 -143 270 -144 439 -351 776 -674 1100
-239 238 -431 375 -731 520 -236 113 -468 186 -740 231 -157 26 -611 26 -773
0 -392 -63 -746 -200 -1064 -413 l-109 -73 -47 75 c-26 41 -70 111 -99 155
l-51 82 -94 -144 c-52 -79 -201 -309 -332 -512 -131 -202 -242 -365 -246 -362
-5 3 -39 48 -76 99 l-67 95 -80 -117 c-211 -310 -482 -680 -516 -705 -9 -6
-35 -43 -58 -82 -38 -65 -183 -278 -204 -299 -5 -6 -9 564 -9 1442 l0 1452
3290 0 3290 0 0 -1646z m-2894 885 c830 -82 1576 -574 1993 -1316 56 -100 130
-260 106 -229 -14 18 -15 18 -24 -5 -5 -13 -34 -89 -65 -168 -31 -79 -59 -147
-62 -152 -2 -5 -23 10 -44 31 -31 31 -48 40 -73 40 -18 0 -38 -5 -44 -11 -8
-8 -52 55 -158 223 -82 128 -193 304 -248 391 -55 86 -102 157 -106 157 -3 0
-101 -148 -218 -328 -117 -180 -218 -335 -225 -345 -13 -17 -18 -13 -63 52
l-50 70 -68 -137 c-117 -233 -225 -395 -285 -426 -18 -9 -43 -13 -68 -9 -40 5
-42 8 -97 107 -30 55 -87 165 -126 244 -40 79 -75 141 -79 138 -4 -2 -36 -45
-72 -95 -36 -50 -68 -91 -71 -91 -4 0 -154 229 -335 509 -181 281 -331 510
-334 510 -3 1 -50 -116 -105 -259 l-100 -261 -40 46 c-22 25 -53 55 -70 65
-36 24 -98 26 -115 5 -7 -8 -16 -15 -20 -15 -9 0 -490 755 -490 769 0 18 246
168 395 241 286 141 590 226 900 253 95 8 360 6 461 -4z m-2039 -786 c-8 -126
5 -286 37 -444 35 -170 35 -310 1 -474 -36 -171 -35 -179 28 -257 39 -49 44
-107 22 -236 -10 -55 -15 -111 -12 -124 11 -44 46 -78 79 -78 45 0 90 52 177
208 129 227 164 262 236 228 31 -15 41 -16 66 -6 49 21 116 106 221 282 54 93
102 168 107 168 4 0 33 -40 65 -90 32 -49 61 -92 66 -95 5 -3 24 20 43 51 l34
56 6 -51 c3 -28 16 -83 28 -123 28 -94 29 -188 2 -248 -11 -25 -45 -82 -76
-128 -57 -82 -67 -115 -47 -152 6 -11 63 -59 128 -107 136 -101 264 -221 329
-308 47 -62 128 -217 122 -233 -2 -6 -150 35 -329 90 -289 88 -359 106 -639
159 -173 32 -328 59 -345 59 -17 0 -219 -25 -450 -56 l-418 -56 -268 181
c-148 100 -276 181 -284 181 -9 0 -102 -23 -207 -50 -106 -28 -193 -49 -196
-47 -2 3 20 30 49 62 l52 57 51 -5 50 -6 139 205 c199 293 281 375 356 359 20
-4 30 -3 30 5 0 6 21 55 46 108 39 80 48 111 55 179 6 72 21 140 36 166 3 5
25 -20 50 -54 37 -51 47 -59 57 -48 7 8 123 184 257 391 134 208 246 378 248
378 2 0 1 -44 -2 -97z m3268 -998 c21 -90 22 -239 1 -328 -22 -95 -20 -117 15
-171 34 -50 34 -52 13 -206 -5 -37 -2 -50 16 -72 45 -57 85 -28 172 127 76
136 121 181 143 145 3 -5 18 -10 32 -10 39 0 97 67 173 198 36 61 67 111 70
111 3 0 23 -29 45 -64 22 -36 43 -65 47 -65 4 0 15 15 25 33 l17 32 24 -100
c29 -120 25 -146 -43 -249 -50 -76 -52 -84 -30 -125 13 -27 127 -384 122 -386
-1 -1 -208 20 -460 46 l-459 47 -126 124 c-141 138 -229 208 -297 234 -39 14
-52 15 -86 5 -37 -11 -44 -10 -85 14 l-45 26 22 37 c95 157 122 192 150 192
21 0 45 50 65 137 9 37 23 93 31 123 16 60 10 61 62 -9 l17 -23 170 261 169
261 6 -138 c4 -75 14 -168 24 -207z"/>
<path d="M6120 5786 c-6 -8 -10 -25 -8 -38 l3 -23 194 -3 c149 -2 196 1 203
10 12 20 10 35 -8 52 -22 23 -365 24 -384 2z"/>
<path d="M493 5773 c-12 -2 -34 -18 -48 -34 -47 -57 -27 -134 43 -160 84 -32
168 76 116 150 -14 19 -76 55 -86 50 -2 -1 -13 -4 -25 -6z"/>
<path d="M904 5765 c-66 -28 -84 -100 -39 -153 31 -36 66 -46 111 -32 65 22
85 108 37 159 -34 36 -68 44 -109 26z"/>
<path d="M1320 5763 c-43 -22 -62 -57 -56 -102 10 -70 83 -108 144 -77 39 20
52 44 52 94 0 29 -7 46 -26 66 -15 14 -32 26 -40 26 -7 0 -18 2 -26 5 -7 3
-29 -3 -48 -12z"/>
<path d="M2213 5745 c-42 -30 -34 -121 12 -139 9 -3 622 -6 1361 -6 l1345 0
24 25 c31 30 32 73 4 109 l-20 26 -1353 0 c-1186 0 -1354 -2 -1373 -15z"/>
<path d="M6122 5621 c-8 -4 -12 -21 -10 -37 l3 -29 194 0 c174 0 195 2 205 18
8 12 8 22 0 35 -10 15 -32 17 -195 19 -101 2 -190 -1 -197 -6z"/>
<path d="M4198 4077 c-18 -18 -44 -47 -59 -64 -22 -27 -33 -31 -98 -38 -40 -4
-70 -9 -67 -12 3 -3 38 -11 78 -19 40 -7 83 -16 94 -19 23 -5 22 -8 68 118 14
37 23 67 21 67 -2 0 -19 -15 -37 -33z"/>
<path d="M3264 4035 c4 -11 30 -85 58 -165 28 -80 54 -149 59 -154 5 -5 38 -4
81 3 175 28 249 44 241 52 -15 14 -166 49 -214 49 l-47 0 -68 88 c-98 126
-119 150 -110 127z"/>
<path d="M4588 3683 c-31 -36 -86 -130 -101 -173 l-15 -44 -138 -47 -139 -47
182 -1 181 -1 6 28 c13 58 47 295 43 298 -2 2 -11 -4 -19 -13z"/>
</g>
</svg>
