<?xml version="1.0" encoding="UTF-8"?>
<svg id="Layer_2" data-name="Layer 2" xmlns="http://www.w3.org/2000/svg" viewBox="0 0 1368.513 130.529">
  <g id="Layer_1-2" data-name="Layer 1">
    <path d="m0,44.529C112.541,14.525,210.13,4.476,282.256,1.529c44.904-1.835,121.677-4.605,219.298,9.323,5.585.797,75.034,14.158,213.931,40.879,0,0,44.263,8.516,117.317,20.798,50.95,8.566,66.783,10.614,82.812,12.192,34.715,3.418,59.143,3.521,106.582,3.586,62.484.086,93.726.129,136.486-3.586,55.525-4.824,97.774-12.853,115.783-16.495,36.862-7.455,68.407-15.992,93.547-23.667l.502,85.969H0V44.529Z" fill="#fff" stroke-width="0"/>
  </g>
</svg>