<?xml version="1.0" standalone="no"?>
<!DOCTYPE svg PUBLIC "-//W3C//DTD SVG 20010904//EN"
 "http://www.w3.org/TR/2001/REC-SVG-20010904/DTD/svg10.dtd">
<svg version="1.0" xmlns="http://www.w3.org/2000/svg"
 width="700.000000pt" height="700.000000pt" viewBox="0 0 700.000000 700.000000"
 preserveAspectRatio="xMidYMid meet">
<metadata>
Created by potrace 1.14, written by Peter Selinger 2001-2017
</metadata>
<g transform="translate(0.000000,700.000000) scale(0.100000,-0.100000)"
fill="#000000" stroke="none">
<path d="M73 6052 c-12 -2 -34 -17 -48 -33 l-25 -31 2 -2489 3 -2489 32 -32
33 -33 3428 0 c3396 1 3428 1 3454 20 15 11 32 34 37 50 6 19 9 949 8 2507
l-2 2478 -28 27 -27 28 -3423 0 c-1882 0 -3432 -1 -3444 -3z m6717 -468 l0
-262 -3277 0 c-1803 0 -3285 1 -3293 4 -13 3 -15 39 -14 252 0 136 3 252 6
258 4 5 1225 9 3292 9 l3286 0 0 -261z"/>
<path d="M6120 5706 c-14 -14 -13 -53 3 -63 6 -4 92 -8 190 -9 141 0 182 2
193 13 17 18 18 49 2 60 -19 12 -375 12 -388 -1z"/>
<path d="M495 5692 c-76 -25 -102 -112 -49 -166 15 -14 29 -26 33 -27 3 0 15
-2 26 -4 80 -16 146 86 99 154 -13 19 -74 54 -86 50 -2 -1 -12 -4 -23 -7z"/>
<path d="M910 5692 c-78 -25 -91 -143 -21 -185 49 -28 100 -16 138 33 16 19
16 72 2 103 -17 36 -79 62 -119 49z"/>
<path d="M1320 5682 c-64 -32 -78 -101 -32 -152 55 -61 150 -42 171 35 24 89
-58 158 -139 117z"/>
<path d="M2219 5668 c-35 -21 -46 -66 -25 -107 9 -16 25 -33 36 -36 16 -5
1949 -9 2613 -5 80 0 90 2 112 25 32 31 32 75 1 111 l-23 28 -1343 0 c-1240 1
-1345 0 -1371 -16z"/>
<path d="M6123 5543 c-15 -5 -18 -59 -4 -67 8 -5 196 -9 333 -7 53 1 58 3 64
26 13 51 -2 55 -200 54 -99 0 -187 -3 -193 -6z"/>
</g>
</svg>
